# xmcd
#
# Track frame offsets: 
#        150
#        14403
#        35803
#        53957
#        67026
#        82589
#        99489
#        127279
#        145194
#        164782
#        178345
#        195147
#        208399
#        223327
#
# Disc length: 3182 seconds
#
# Revision: 2
# Processed by: cddbd v1.5.2PL0 Copyright (c) Steve Scherf et al.
# Submitted via: ExactAudioCopy v1.0b3
#
DISCID=dd0c6c0e
DTITLE=Various Artist - Let's Dance Salsa [CD 2)
DYEAR=2014
DGENRE=Salsa
TTITLE0=Ecos De Siboney - Con Una Mirada
TTITLE1=Conjunto De Nene Allue - Doble Inconciencia
TTITLE2=Pío Leiva Y Los Mentirosos - El Cuento Del Sapo
TTITLE3=Sergio Rivero - Mirandote Y Acariciandote
TTITLE4=Orquesta Chucho Zarzosa - El Amor De Mi Bohío
TTITLE5=Conjunto Campo Alegre - El Cuarto De Tula
TTITLE6=Conjunto Roberto Faz - Flores Y Más Flores
TTITLE7=Cuarteto Arimao - El Guanajo Relleno
TTITLE8=Septeto Nacional - Echale Salsita
TTITLE9=Abelardo Barroso Y Su Conjunto - El Huerfanito
TTITLE10=Carlos Puebla - ¡Hasta Siempre, Comandante!
TTITLE11=Caridad Hierrezuelo - El Rumberito
TTITLE12=Trío Matamoros - En El Ingenio
TTITLE13=Cheo Marquetti - En Un Final
EXTD=YEAR: 2011
EXTT0=
EXTT1=
EXTT2=
EXTT3=
EXTT4=
EXTT5=
EXTT6=
EXTT7=
EXTT8=
EXTT9=
EXTT10=
EXTT11=
EXTT12=
EXTT13=
PLAYORDER=
